<?xml version="1.0" encoding="utf-8"?>
<!-- Generator: Adobe Illustrator 26.2.1, SVG Export Plug-In . SVG Version: 6.00 Build 0)  -->
<svg version="1.1" id="Layer_1" xmlns="http://www.w3.org/2000/svg" xmlns:xlink="http://www.w3.org/1999/xlink" x="0px" y="0px"
	 viewBox="0 0 480 480" style="enable-background:new 0 0 480 480;" xml:space="preserve">
<style type="text/css">
	.st0{fill:#538F93;stroke:#898989;stroke-width:9.432000e-02;stroke-linecap:round;stroke-linejoin:round;}
	.st1{fill:#538F93;stroke:#898989;stroke-width:5.714000e-02;stroke-linecap:round;stroke-linejoin:round;}
	.st2{fill:#538F93;stroke:#898989;stroke-width:0.1137;stroke-linecap:round;stroke-linejoin:round;}
	.st3{fill:#538F93;stroke:#898989;stroke-width:4.705000e-02;stroke-linecap:round;stroke-linejoin:round;}
	.st4{fill:#538F93;stroke:#538F93;}
	.st5{fill:#538F93;stroke:#538F93;stroke-width:1.0178;}
	.st6{fill:none;stroke:#538F93;stroke-width:1.3974;stroke-linecap:round;stroke-linejoin:round;}
	.st7{fill:#538F93;stroke:#538F93;stroke-width:1.5195;stroke-miterlimit:6.078;}
	.st8{fill:#538F93;stroke:#538F93;stroke-width:1.5465;stroke-miterlimit:6.078;}
	.st9{fill:none;stroke:#538F93;stroke-width:2.1233;stroke-linecap:round;stroke-linejoin:round;stroke-miterlimit:6.078;}
	.st10{fill:#538F93;stroke:#538F93;stroke-width:0.6064;stroke-miterlimit:2.4256;}
	.st11{fill:#538F93;stroke:#538F93;stroke-width:0.6172;stroke-miterlimit:2.4256;}
	.st12{fill:none;stroke:#538F93;stroke-width:0.8474;stroke-linecap:round;stroke-linejoin:round;stroke-miterlimit:2.4256;}
	.st13{fill:#538F93;stroke:#538F93;stroke-width:1.6691;stroke-miterlimit:6.6764;}
	.st14{fill:#538F93;stroke:#538F93;stroke-width:1.6988;stroke-miterlimit:6.6764;}
	.st15{fill:none;stroke:#538F93;stroke-width:2.3324;stroke-linecap:round;stroke-linejoin:round;stroke-miterlimit:6.6764;}
	.st16{fill:#538F93;stroke:#538F93;stroke-width:0.5592;stroke-miterlimit:2.2367;}
	.st17{fill:#538F93;stroke:#538F93;stroke-width:0.5691;stroke-miterlimit:2.2367;}
	.st18{fill:none;stroke:#538F93;stroke-width:0.7814;stroke-linecap:round;stroke-linejoin:round;stroke-miterlimit:2.2367;}
	.st19{fill:#538F93;stroke:#898989;stroke-width:0.1;stroke-linecap:round;stroke-linejoin:round;}
	.st20{fill:#538F93;}
	.st21{fill:none;stroke:#538F93;stroke-width:1.0387;}
	.st22{fill:none;stroke:#538F93;stroke-width:0.9971;}
	
		.st23{fill:#538F93;stroke:#898989;stroke-width:5.527500e-02;stroke-linecap:round;stroke-linejoin:round;stroke-miterlimit:2.211;}
</style>
<path class="st0" d="M110.9,381.3c-1.5,0-3.1,10.2-10.9,30.7h-0.1v21.4c-18-0.2-21.6-0.1-41.9,0h-0.2v37.9h46.1v-5h17.4V412h-0.1
	C113.9,391.5,112.5,381.3,110.9,381.3L110.9,381.3z"/>
<path class="st1" d="M398,429.6l-12.1,11.7h-0.1v26.4h24.3v-26.4H410L398,429.6L398,429.6z"/>
<path class="st2" d="M346.5,379h-0.1v87.7h29V379h-0.1C361.3,378.5,360.2,378.7,346.5,379L346.5,379z"/>
<path class="st3" d="M37.3,443.9l-9.8,9.7h-0.1v22h19.8v-22h-0.1L37.3,443.9L37.3,443.9z"/>
<path class="st4" d="M307.2,155.7c7.4-0.5,14,1.1,19.7,4.9c13.1-4.8,116,15.6-2.3-24C206.6,106.5,294.1,142.9,307.2,155.7
	L307.2,155.7z"/>
<path class="st5" d="M295.3,126.8c18.4,4.1,37.6,9,59.6,17.4C341.2,121.5,322.8,111.4,295.3,126.8L295.3,126.8z"/>
<path class="st6" d="M307.5,156.4l18.6,4.7"/>
<path class="st7" d="M172.8,198.9c-11.3-0.8-21.3,1.6-30,7.5c-19.9-7.3-176.2,23.7,3.5-36.5C325.5,124.2,192.7,179.4,172.8,198.9
	L172.8,198.9z"/>
<path class="st8" d="M190.7,154.9c-28,6.2-57.1,13.7-90.6,26.5C121,146.9,149.1,131.6,190.7,154.9L190.7,154.9z"/>
<path class="st9" d="M172.2,199.9l-28.2,7.1"/>
<path class="st10" d="M176.9,97.7c4.5-0.3,8.5,0.6,12,3c8-2.9,70.3,9.5-1.4-14.6C115.9,67.9,168.9,89.9,176.9,97.7L176.9,97.7z"/>
<path class="st11" d="M169.7,80.2c11.2,2.5,22.8,5.5,36.2,10.6C197.5,76.9,186.3,70.9,169.7,80.2L169.7,80.2z"/>
<path class="st12" d="M177.1,98.1l11.3,2.8"/>
<path class="st13" d="M289.5,273.2c12.4-0.9,23.4,1.8,32.9,8.2c21.9-8,193.6,26.1-3.8-40.1C121.7,191.1,267.6,251.8,289.5,273.2
	L289.5,273.2z"/>
<path class="st14" d="M269.8,224.9c30.8,6.8,62.7,15,99.5,29.1C346.4,216.1,315.6,199.3,269.8,224.9L269.8,224.9z"/>
<path class="st15" d="M290.1,274.4l31,7.8"/>
<path class="st16" d="M294,77.5c-4.2-0.3-7.9,0.6-11,2.8c-7.3-2.7-64.9,8.7,1.3-13.4C350.3,50.1,301.4,70.4,294,77.5L294,77.5z"/>
<path class="st17" d="M300.7,61.4c-10.3,2.3-21,5-33.3,9.7C275,58.4,285.3,52.8,300.7,61.4L300.7,61.4z"/>
<path class="st18" d="M293.9,77.9l-10.4,2.6"/>
<path class="st19" d="M257.2,190.6c-0.5,0-1.1-1.9-1.6-2.1c-0.4-0.2-2.3,0.7-2.6,0.4s0.5-2.2,0.4-2.6s-2.1-1.1-2.1-1.6
	s1.9-1.1,2.1-1.6s-0.7-2.3-0.4-2.6s2.2,0.5,2.6,0.4s1.1-2.1,1.6-2.1c0.5,0,1.1,1.9,1.6,2.1s2.3-0.7,2.6-0.4c0.3,0.3-0.5,2.2-0.4,2.6
	c0.2,0.4,2.1,1.1,2.1,1.6s-1.9,1.1-2.1,1.6c-0.2,0.4,0.7,2.3,0.4,2.6c-0.3,0.3-2.2-0.5-2.6-0.4C258.3,188.7,257.7,190.6,257.2,190.6
	z"/>
<path class="st19" d="M401.9,101.8c-0.3,0.1-1.2-1-1.5-1s-1.4,1-1.7,0.8s-0.1-1.6-0.3-1.8s-1.6-0.3-1.7-0.6s1-1.2,1-1.5
	s-1-1.4-0.8-1.7s1.6-0.1,1.8-0.3s0.3-1.6,0.6-1.7s1.2,1,1.5,1s1.4-1,1.7-0.8s0.1,1.6,0.3,1.8s1.6,0.3,1.7,0.6s-1,1.2-1,1.5
	s1,1.4,0.8,1.7s-1.6,0.1-1.8,0.3S402.2,101.7,401.9,101.8L401.9,101.8z"/>
<path class="st19" d="M359.8,53.8c-0.5,0.3-2.2-1.3-2.7-1.2s-1.9,2-2.4,1.8s-0.7-2.5-1.1-2.8s-2.7,0-3-0.4s1.3-2.2,1.2-2.7
	s-2-1.9-1.8-2.4s2.5-0.7,2.8-1.1s0-2.7,0.4-3s2.2,1.3,2.7,1.2s1.9-2,2.4-1.8s0.7,2.5,1.1,2.8s2.7,0,3,0.4s-1.3,2.2-1.2,2.7
	s2,1.9,1.8,2.4s-2.5,0.7-2.8,1.1S360.3,53.5,359.8,53.8L359.8,53.8z"/>
<path class="st19" d="M442,61.7c-0.6,0.3-2.7-1.6-3.3-1.5s-2.3,2.4-2.9,2.2s-0.8-3-1.3-3.4c-0.5-0.4-3.3,0-3.6-0.5
	c-0.3-0.6,1.6-2.7,1.5-3.3c-0.1-0.7-2.4-2.3-2.2-2.9s3-0.8,3.4-1.3s0-3.3,0.5-3.6c0.6-0.3,2.7,1.6,3.3,1.5s2.3-2.4,2.9-2.2
	s0.8,3,1.3,3.4s3.3,0,3.6,0.5s-1.6,2.7-1.5,3.3s2.4,2.3,2.2,2.9c-0.2,0.6-3,0.8-3.4,1.3S442.6,61.3,442,61.7z"/>
<path class="st19" d="M208.5,37.3c-0.4,0.4-2.4-0.6-2.9-0.4s-1.2,2.3-1.7,2.3s-1.3-2.1-1.7-2.3s-2.5,0.8-2.9,0.4s0.6-2.4,0.4-2.9
	s-2.3-1.2-2.3-1.7s2.1-1.3,2.3-1.7s-0.8-2.5-0.4-2.9s2.4,0.6,2.9,0.4s1.2-2.3,1.7-2.3s1.3,2.1,1.7,2.3s2.5-0.8,2.9-0.4
	s-0.6,2.4-0.4,2.9s2.3,1.2,2.3,1.7s-2.1,1.3-2.3,1.7S208.9,37,208.5,37.3z"/>
<path class="st19" d="M91.4,55.1c0.4,0.7-2,3.5-1.8,4.3s3.1,2.9,2.9,3.7s-3.8,1.1-4.4,1.8s0.1,4.2-0.6,4.7s-3.5-2-4.3-1.8
	s-2.9,3.1-3.7,2.9s-1.1-3.8-1.8-4.4s-4.2,0.1-4.7-0.6s2-3.5,1.8-4.3s-3.1-2.9-2.9-3.7s3.8-1.1,4.4-1.8s-0.1-4.2,0.6-4.7
	s3.5,2,4.3,1.8s2.9-3.1,3.7-2.9s1.1,3.8,1.8,4.4S91,54.3,91.4,55.1z"/>
<path class="st19" d="M50.6,117.6c0,2.5-1.9,4.6-4.3,4.6c-2.4,0-4.3-2.1-4.3-4.6l0,0c0-2.5,1.9-4.6,4.3-4.6S50.6,115,50.6,117.6
	C50.6,117.6,50.6,117.6,50.6,117.6z"/>
<path class="st19" d="M449.3,207.4c0,8.9-7.2,16.1-16.1,16.1c-8.9,0-16.1-7.2-16.1-16.1l0,0c0-8.9,7.2-16.1,16.1-16.1
	C442,191.2,449.3,198.5,449.3,207.4z"/>
<path class="st19" d="M154.7,399.5l-20.9,20.7h-0.2v46.7h42.1v-46.7h-0.2L154.7,399.5L154.7,399.5z"/>
<path class="st19" d="M308.5,386.8l-18.8,19l9.8,2.4l-11.8,7.1c0.2,1.5,0.3,10.4,0.4,10.6c0.1,0.3,6.7,2.3,6.8,2.6s-4.1,8.5-4.1,8.8
	s4.2,8.5,4.1,8.8s-6.7,2.3-6.8,2.6s-0.3,10.8-0.5,10.9c-0.1,0.1-3.9-3-5.5-4.3v8.8h52.6v-50.6h0.2L308.5,386.8z"/>
<path class="st19" d="M217.2,345.2c0.1,1.3,0.1,2.4,0.2,2.4c0.2,0.2,9.2,2.2,9.3,2.4s-5.7,7.9-5.7,8.2s5.8,7.9,5.7,8.2
	s-9.1,2.2-9.3,2.4s-0.4,10-0.7,10.1s-8.3-4.5-8.6-4.5s-6.4,7.4-6.7,7.3s-3.6-9.1-3.9-9.3c-0.2-0.1-4.7,0.6-7.4,0.9v90.8h72.1
	c-1.6-3.4-5.9-14.3-6.2-14.3c-0.4-0.1-8.5,13.2-8.9,12.9s0.8-18.2,0.5-18.5s-12,3.1-12.2,2.6s7.7-14,7.7-14.6s-11-8.1-10.9-8.7
	s11.7-4.5,11.9-5s-5.7-16.2-5.4-16.7s11.3,6.7,11.6,6.4s1.8-18.2,2.1-18.3s6.5,15.4,6.8,15.4c0.2,0,2.1-2.9,4-5.9v-54.5L217.2,345.2
	L217.2,345.2z M263.1,463.8c0,0.1,0,0.3-0.1,0.5h0.1V463.8z"/>
<path class="st20" d="M241.1,459.5c-119.1,0-218.3,9.1-240,21.2h480.1c-19.3-10.7-99.8-19.1-201-20.8c-0.1,2.3-0.3,7.1-0.4,7.2
	c-0.2,0.1-6.7-3.8-6.9-3.8s-5.1,6.1-5.4,6.1s-2.9-7.6-3.1-7.7s-7.5,1.1-7.7,0.9c-0.1-0.1,0.3-1.4,0.7-2.9
	C251.9,459.6,246.5,459.5,241.1,459.5L241.1,459.5z"/>
<path class="st21" d="M304.3,267.9l-43.7,150.9c-4.9,2.4-8.4,7.8-8.5,14.1c-0.1,8.7,6.2,15.8,14.1,16s14.5-6.8,14.6-15.5
	c0.1-3.3-0.8-6.3-2.3-8.9l33.1-154.4L304.3,267.9L304.3,267.9z"/>
<path class="st22" d="M160.3,199.4L203.6,340c4.9,2.3,8.3,7.3,8.4,13.1c0.1,8.1-6.1,14.7-14,14.9s-14.4-6.3-14.5-14.4
	c-0.1-3,0.8-5.9,2.3-8.3l-32.8-143.8L160.3,199.4L160.3,199.4z"/>
<path class="st23" d="M41.1,246.5c0,4.9-4,8.9-8.9,8.9c-4.9,0-8.9-4-8.9-8.9l0,0c0-4.9,4-8.9,8.9-8.9
	C37.2,237.6,41.1,241.6,41.1,246.5z"/>
<path class="st19" d="M99.3,305.7c-0.4,0.4-2.4-0.6-2.9-0.4c-0.5,0.2-1.2,2.3-1.7,2.3s-1.3-2.1-1.7-2.3c-0.5-0.2-2.5,0.8-2.9,0.4
	s0.6-2.4,0.4-2.9c-0.2-0.5-2.3-1.2-2.3-1.7c0-0.5,2.1-1.3,2.3-1.7s-0.8-2.5-0.4-2.9s2.4,0.6,2.9,0.4s1.2-2.3,1.7-2.3
	s1.3,2.1,1.7,2.3c0.5,0.2,2.5-0.8,2.9-0.4s-0.6,2.4-0.4,2.9s2.3,1.2,2.3,1.7c0,0.5-2.1,1.3-2.3,1.7S99.7,305.3,99.3,305.7z"/>
</svg>
