<?xml version="1.0" encoding="utf-8"?>
<!-- Generator: Adobe Illustrator 26.2.1, SVG Export Plug-In . SVG Version: 6.00 Build 0)  -->
<svg version="1.1" id="Layer_1" xmlns="http://www.w3.org/2000/svg" xmlns:xlink="http://www.w3.org/1999/xlink" x="0px" y="0px"
	 viewBox="0 0 1076 480" style="enable-background:new 0 0 1076 480;" xml:space="preserve">
<style type="text/css">
	.st0{fill:#538F93;stroke:#898989;stroke-width:9.432000e-02;stroke-linecap:round;stroke-linejoin:round;}
	.st1{fill:#538F93;stroke:#898989;stroke-width:5.714000e-02;stroke-linecap:round;stroke-linejoin:round;}
	.st2{fill:#538F93;stroke:#898989;stroke-width:0.1137;stroke-linecap:round;stroke-linejoin:round;}
	.st3{fill:#538F93;stroke:#898989;stroke-width:4.705000e-02;stroke-linecap:round;stroke-linejoin:round;}
	.st4{fill:#538F93;stroke:#538F93;}
	.st5{fill:#538F93;stroke:#538F93;stroke-width:1.0178;}
	.st6{fill:none;stroke:#538F93;stroke-width:1.3974;stroke-linecap:round;stroke-linejoin:round;}
	.st7{fill:#538F93;stroke:#538F93;stroke-width:1.5195;stroke-miterlimit:6.078;}
	.st8{fill:#538F93;stroke:#538F93;stroke-width:1.5465;stroke-miterlimit:6.078;}
	.st9{fill:none;stroke:#538F93;stroke-width:2.1233;stroke-linecap:round;stroke-linejoin:round;stroke-miterlimit:6.078;}
	.st10{fill:#538F93;stroke:#538F93;stroke-width:0.6064;stroke-miterlimit:2.4256;}
	.st11{fill:#538F93;stroke:#538F93;stroke-width:0.6172;stroke-miterlimit:2.4256;}
	.st12{fill:none;stroke:#538F93;stroke-width:0.8474;stroke-linecap:round;stroke-linejoin:round;stroke-miterlimit:2.4256;}
	.st13{fill:#538F93;stroke:#538F93;stroke-width:1.6691;stroke-miterlimit:6.6764;}
	.st14{fill:#538F93;stroke:#538F93;stroke-width:1.6988;stroke-miterlimit:6.6764;}
	.st15{fill:none;stroke:#538F93;stroke-width:2.3324;stroke-linecap:round;stroke-linejoin:round;stroke-miterlimit:6.6764;}
	.st16{fill:#538F93;stroke:#538F93;stroke-width:0.5592;stroke-miterlimit:2.2367;}
	.st17{fill:#538F93;stroke:#538F93;stroke-width:0.5691;stroke-miterlimit:2.2367;}
	.st18{fill:none;stroke:#538F93;stroke-width:0.7814;stroke-linecap:round;stroke-linejoin:round;stroke-miterlimit:2.2367;}
	.st19{fill:#538F93;stroke:#898989;stroke-width:0.1;stroke-linecap:round;stroke-linejoin:round;}
	.st20{fill:#538F93;}
	.st21{fill:none;stroke:#538F93;stroke-width:1.0387;}
	.st22{fill:none;stroke:#538F93;stroke-width:0.9971;}
	
		.st23{fill:#538F93;stroke:#898989;stroke-width:5.527500e-02;stroke-linecap:round;stroke-linejoin:round;stroke-miterlimit:2.211;}
</style>
<path class="st0" d="M414.9,381.3c-1.5,0-3.1,10.2-10.9,30.7h-0.1v21.4c-18-0.2-21.6-0.1-41.9,0h-0.2v37.9h46.1v-5h17.4V412h-0.1
	C417.9,391.5,416.5,381.3,414.9,381.3L414.9,381.3z"/>
<path class="st1" d="M702,429.6l-12.1,11.7h-0.1v26.4h24.3v-26.4H714L702,429.6L702,429.6z"/>
<path class="st2" d="M650.5,379L650.5,379l-0.1,87.7h29V379h-0.1C665.3,378.5,664.2,378.7,650.5,379L650.5,379z"/>
<path class="st3" d="M341.3,443.9l-9.8,9.7h-0.1v22h19.8v-22h-0.1L341.3,443.9L341.3,443.9z"/>
<path class="st4" d="M611.2,155.7c7.4-0.5,14,1.1,19.7,4.9c13.1-4.8,116,15.6-2.3-24C510.6,106.5,598.1,142.9,611.2,155.7
	L611.2,155.7z"/>
<path class="st5" d="M599.3,126.8c18.4,4.1,37.6,9,59.6,17.4C645.2,121.5,626.8,111.4,599.3,126.8L599.3,126.8z"/>
<path class="st6" d="M611.5,156.4l18.6,4.7"/>
<path class="st7" d="M476.8,198.9c-11.3-0.8-21.3,1.6-30,7.5c-19.9-7.3-176.2,23.7,3.5-36.5C629.5,124.2,496.7,179.4,476.8,198.9
	L476.8,198.9z"/>
<path class="st8" d="M494.7,154.9c-28,6.2-57.1,13.7-90.6,26.5C425,146.9,453.1,131.6,494.7,154.9L494.7,154.9z"/>
<path class="st9" d="M476.2,199.9L448,207"/>
<path class="st10" d="M480.9,97.7c4.5-0.3,8.5,0.6,12,3c8-2.9,70.3,9.5-1.4-14.6C419.9,67.9,472.9,89.9,480.9,97.7L480.9,97.7z"/>
<path class="st11" d="M473.7,80.2c11.2,2.5,22.8,5.5,36.2,10.6C501.5,76.9,490.3,70.9,473.7,80.2L473.7,80.2z"/>
<path class="st12" d="M481.1,98.1l11.3,2.8"/>
<path class="st13" d="M593.5,273.2c12.4-0.9,23.4,1.8,32.9,8.2c21.9-8,193.6,26.1-3.8-40.1C425.7,191.1,571.6,251.8,593.5,273.2
	L593.5,273.2z"/>
<path class="st14" d="M573.8,224.9c30.8,6.8,62.7,15,99.5,29.1C650.4,216.1,619.6,199.3,573.8,224.9L573.8,224.9z"/>
<path class="st15" d="M594.1,274.4l31,7.8"/>
<path class="st16" d="M598,77.5c-4.2-0.3-7.9,0.6-11,2.8c-7.3-2.7-64.9,8.7,1.3-13.4C654.3,50.1,605.4,70.4,598,77.5L598,77.5z"/>
<path class="st17" d="M604.7,61.4c-10.3,2.3-21,5-33.3,9.7C579,58.4,589.3,52.8,604.7,61.4L604.7,61.4z"/>
<path class="st18" d="M597.9,77.9l-10.4,2.6"/>
<path class="st19" d="M561.2,190.6c-0.5,0-1.1-1.9-1.6-2.1c-0.4-0.2-2.3,0.7-2.6,0.4s0.5-2.2,0.4-2.6c-0.1-0.4-2.1-1.1-2.1-1.6
	s1.9-1.1,2.1-1.6c0.2-0.5-0.7-2.3-0.4-2.6s2.2,0.5,2.6,0.4c0.4-0.1,1.1-2.1,1.6-2.1s1.1,1.9,1.6,2.1s2.3-0.7,2.6-0.4
	c0.3,0.3-0.5,2.2-0.4,2.6c0.2,0.4,2.1,1.1,2.1,1.6s-1.9,1.1-2.1,1.6c-0.2,0.4,0.7,2.3,0.4,2.6c-0.3,0.3-2.2-0.5-2.6-0.4
	C562.3,188.7,561.7,190.6,561.2,190.6z"/>
<path class="st19" d="M705.9,101.8c-0.3,0.1-1.2-1-1.5-1c-0.3,0-1.4,1-1.7,0.8c-0.3-0.2-0.1-1.6-0.3-1.8c-0.2-0.2-1.6-0.3-1.7-0.6
	c-0.1-0.3,1-1.2,1-1.5s-1-1.4-0.8-1.7c0.2-0.3,1.6-0.1,1.8-0.3c0.2-0.2,0.3-1.6,0.6-1.7s1.2,1,1.5,1s1.4-1,1.7-0.8s0.1,1.6,0.3,1.8
	s1.6,0.3,1.7,0.6s-1,1.2-1,1.5s1,1.4,0.8,1.7s-1.6,0.1-1.8,0.3S706.2,101.7,705.9,101.8L705.9,101.8z"/>
<path class="st19" d="M663.8,53.8c-0.5,0.3-2.2-1.3-2.7-1.2s-1.9,2-2.4,1.8s-0.7-2.5-1.1-2.8s-2.7,0-3-0.4s1.3-2.2,1.2-2.7
	s-2-1.9-1.8-2.4s2.5-0.7,2.8-1.1s0-2.7,0.4-3c0.4-0.3,2.2,1.3,2.7,1.2s1.9-2,2.4-1.8s0.7,2.5,1.1,2.8c0.4,0.3,2.7,0,3,0.4
	c0.3,0.4-1.3,2.2-1.2,2.7s2,1.9,1.8,2.4c-0.2,0.5-2.5,0.7-2.8,1.1C663.9,51.2,664.3,53.5,663.8,53.8L663.8,53.8z"/>
<path class="st19" d="M781.3,67.6c-0.6,0.3-2.7-1.6-3.3-1.5s-2.3,2.4-2.9,2.2c-0.6-0.2-0.8-3-1.3-3.4s-3.3,0-3.6-0.5
	c-0.3-0.6,1.6-2.7,1.5-3.3c-0.1-0.7-2.4-2.3-2.2-2.9c0.2-0.6,3-0.8,3.4-1.3c0.4-0.5,0-3.3,0.5-3.6c0.6-0.3,2.7,1.6,3.3,1.5
	s2.3-2.4,2.9-2.2c0.6,0.2,0.8,3,1.3,3.4s3.3,0,3.6,0.5c0.3,0.5-1.6,2.7-1.5,3.3c0.1,0.6,2.4,2.3,2.2,2.9c-0.2,0.6-3,0.8-3.4,1.3
	C781.4,64.5,781.9,67.2,781.3,67.6z"/>
<path class="st19" d="M512.5,37.3c-0.4,0.4-2.4-0.6-2.9-0.4s-1.2,2.3-1.7,2.3s-1.3-2.1-1.7-2.3s-2.5,0.8-2.9,0.4s0.6-2.4,0.4-2.9
	s-2.3-1.2-2.3-1.7s2.1-1.3,2.3-1.7s-0.8-2.5-0.4-2.9s2.4,0.6,2.9,0.4s1.2-2.3,1.7-2.3s1.3,2.1,1.7,2.3s2.5-0.8,2.9-0.4
	s-0.6,2.4-0.4,2.9c0.2,0.5,2.3,1.2,2.3,1.7s-2.1,1.3-2.3,1.7C511.9,34.8,512.9,37,512.5,37.3z"/>
<path class="st19" d="M395.4,55.1c0.4,0.7-2,3.5-1.8,4.3c0.2,0.8,3.1,2.9,2.9,3.7s-3.8,1.1-4.4,1.8s0.1,4.2-0.6,4.7s-3.5-2-4.3-1.8
	c-0.8,0.2-2.9,3.1-3.7,2.9s-1.1-3.8-1.8-4.4c-0.7-0.6-4.2,0.1-4.7-0.6s2-3.5,1.8-4.3c-0.2-0.8-3.1-2.9-2.9-3.7
	c0.2-0.8,3.8-1.1,4.4-1.8c0.6-0.7-0.1-4.2,0.6-4.7c0.7-0.5,3.5,2,4.3,1.8c0.8-0.2,2.9-3.1,3.7-2.9c0.8,0.2,1.1,3.8,1.8,4.4
	S395,54.3,395.4,55.1z"/>
<path class="st19" d="M354.6,117.6c0,2.5-1.9,4.6-4.3,4.6c-2.4,0-4.3-2.1-4.3-4.6l0,0c0-2.5,1.9-4.6,4.3-4.6
	C352.7,113,354.6,115,354.6,117.6L354.6,117.6z"/>
<path class="st19" d="M753.3,207.4c0,8.9-7.2,16.1-16.1,16.1c-8.9,0-16.1-7.2-16.1-16.1l0,0c0-8.9,7.2-16.1,16.1-16.1
	C746,191.2,753.3,198.5,753.3,207.4z"/>
<path class="st19" d="M458.7,399.5l-20.9,20.7h-0.2v46.7h42.1v-46.7h-0.2L458.7,399.5L458.7,399.5z"/>
<path class="st19" d="M612.5,386.8l-18.8,19l9.8,2.4l-11.8,7.1c0.2,1.5,0.3,10.4,0.4,10.6c0.1,0.3,6.7,2.3,6.8,2.6s-4.1,8.5-4.1,8.8
	s4.2,8.5,4.1,8.8c-0.1,0.3-6.7,2.3-6.8,2.6s-0.3,10.8-0.5,10.9c-0.1,0.1-3.9-3-5.5-4.3v8.8h52.6v-50.6h0.2L612.5,386.8z"/>
<path class="st19" d="M521.2,345.2c0.1,1.3,0.1,2.4,0.2,2.4c0.2,0.2,9.2,2.2,9.3,2.4c0.1,0.2-5.7,7.9-5.7,8.2s5.8,7.9,5.7,8.2
	c-0.1,0.3-9.1,2.2-9.3,2.4c-0.2,0.2-0.4,10-0.7,10.1s-8.3-4.5-8.6-4.5c-0.3,0-6.4,7.4-6.7,7.3s-3.6-9.1-3.9-9.3
	c-0.2-0.1-4.7,0.6-7.4,0.9v90.8h72.1c-1.6-3.4-5.9-14.3-6.2-14.3c-0.4-0.1-8.5,13.2-8.9,12.9c-0.4-0.3,0.8-18.2,0.5-18.5
	c-0.3-0.3-12,3.1-12.2,2.6c-0.2-0.5,7.7-14,7.7-14.6s-11-8.1-10.9-8.7s11.7-4.5,11.9-5c0.2-0.5-5.7-16.2-5.4-16.7s11.3,6.7,11.6,6.4
	c0.3-0.3,1.8-18.2,2.1-18.3s6.5,15.4,6.8,15.4c0.2,0,2.1-2.9,4-5.9v-54.5L521.2,345.2L521.2,345.2z M567.1,463.8
	c0,0.1,0,0.3-0.1,0.5h0.1V463.8z"/>
<path class="st20" d="M545.1,459.5c-119.1,0-218.3,9.1-240,21.2h480.1c-19.3-10.7-99.8-19.1-201-20.8c-0.1,2.3-0.3,7.1-0.4,7.2
	c-0.2,0.1-6.7-3.8-6.9-3.8s-5.1,6.1-5.4,6.1c-0.3,0-2.9-7.6-3.1-7.7s-7.5,1.1-7.7,0.9c-0.1-0.1,0.3-1.4,0.7-2.9
	C555.9,459.6,550.5,459.5,545.1,459.5L545.1,459.5z"/>
<path class="st21" d="M608.3,267.9l-43.7,150.9c-4.9,2.4-8.4,7.8-8.5,14.1c-0.1,8.7,6.2,15.8,14.1,16c7.9,0.2,14.5-6.8,14.6-15.5
	c0.1-3.3-0.8-6.3-2.3-8.9l33.1-154.4L608.3,267.9L608.3,267.9z"/>
<path class="st22" d="M464.3,199.4L507.6,340c4.9,2.3,8.3,7.3,8.4,13.1c0.1,8.1-6.1,14.7-14,14.9s-14.4-6.3-14.5-14.4
	c-0.1-3,0.8-5.9,2.3-8.3L457,201.5L464.3,199.4L464.3,199.4z"/>
<path class="st23" d="M345.1,246.5c0,4.9-4,8.9-8.9,8.9c-4.9,0-8.9-4-8.9-8.9l0,0c0-4.9,4-8.9,8.9-8.9
	C341.2,237.6,345.1,241.6,345.1,246.5z"/>
<path class="st19" d="M403.3,305.7c-0.4,0.4-2.4-0.6-2.9-0.4s-1.2,2.3-1.7,2.3s-1.3-2.1-1.7-2.3c-0.5-0.2-2.5,0.8-2.9,0.4
	s0.6-2.4,0.4-2.9c-0.2-0.5-2.3-1.2-2.3-1.7s2.1-1.3,2.3-1.7s-0.8-2.5-0.4-2.9s2.4,0.6,2.9,0.4s1.2-2.3,1.7-2.3s1.3,2.1,1.7,2.3
	c0.5,0.2,2.5-0.8,2.9-0.4c0.4,0.4-0.6,2.4-0.4,2.9c0.2,0.5,2.3,1.2,2.3,1.7s-2.1,1.3-2.3,1.7C402.7,303.2,403.7,305.3,403.3,305.7z"
	/>
<path class="st23" d="M154.7,110.7c0,4.9-4,8.9-8.9,8.9c-4.9,0-8.9-4-8.9-8.9l0,0c0-4.9,4-8.9,8.9-8.9
	C150.8,101.8,154.7,105.8,154.7,110.7z"/>
<path class="st19" d="M212.9,169.9c-0.4,0.4-2.4-0.6-2.9-0.4s-1.2,2.3-1.7,2.3s-1.3-2.1-1.7-2.3c-0.5-0.2-2.5,0.8-2.9,0.4
	c-0.4-0.4,0.6-2.4,0.4-2.9s-2.3-1.2-2.3-1.7s2.1-1.3,2.3-1.7s-0.8-2.5-0.4-2.9c0.4-0.4,2.4,0.6,2.9,0.4s1.2-2.3,1.7-2.3
	s1.3,2.1,1.7,2.3c0.5,0.2,2.5-0.8,2.9-0.4c0.4,0.4-0.6,2.4-0.4,2.9s2.3,1.2,2.3,1.7s-2.1,1.3-2.3,1.7S213.3,169.5,212.9,169.9z"/>
<path class="st19" d="M125,260.3c0.6,1-2.8,5-2.6,6.1s4.4,4.1,4.1,5.3c-0.3,1.1-5.4,1.6-6.3,2.6c-0.9,1,0.1,6-0.9,6.7
	s-5-2.8-6.1-2.6c-1.1,0.3-4.1,4.4-5.3,4.1c-1.1-0.3-1.6-5.4-2.6-6.3c-1-0.9-6,0.1-6.7-0.9c-0.7-1,2.8-5,2.6-6.1
	c-0.3-1.1-4.4-4.1-4.1-5.3c0.3-1.1,5.4-1.6,6.3-2.6s-0.1-6,0.9-6.7c1-0.7,5,2.9,6.1,2.6s4.1-4.4,5.3-4.1c1.1,0.3,1.6,5.4,2.6,6.3
	C119.3,260.3,124.4,259.2,125,260.3z"/>
<path class="st19" d="M200.8,351.4c0,4.5-3.6,8.1-8.1,8.1s-8.1-3.6-8.1-8.1l0,0c0-4.4,3.6-8,8.1-8
	C197.2,343.3,200.8,346.9,200.8,351.4z"/>
<path class="st19" d="M62.2,76.9c-0.3,0.1-1.2-1-1.5-1s-1.4,1-1.7,0.8s-0.1-1.6-0.3-1.8s-1.6-0.3-1.7-0.6s1-1.2,1-1.5
	s-1-1.4-0.8-1.7s1.6-0.1,1.8-0.3s0.3-1.6,0.6-1.7s1.2,1,1.5,1s1.4-1,1.7-0.8s0.1,1.6,0.3,1.8s1.6,0.3,1.7,0.6s-1,1.2-1,1.5
	s1,1.4,0.8,1.7S63,75,62.8,75.2S62.5,76.8,62.2,76.9L62.2,76.9z"/>
<path class="st19" d="M20.1,28.9c-0.5,0.3-2.2-1.3-2.7-1.2s-1.9,2-2.4,1.8s-0.7-2.5-1.1-2.8s-2.7,0-3-0.4s1.3-2.2,1.2-2.7
	s-2-1.9-1.8-2.4s2.5-0.7,2.8-1.1s0-2.7,0.4-3s2.2,1.3,2.7,1.2s1.9-2,2.4-1.8s0.7,2.5,1.1,2.8s2.7,0,3,0.4s-1.3,2.2-1.2,2.7
	s2,1.9,1.8,2.4s-2.5,0.7-2.8,1.1S20.6,28.6,20.1,28.9L20.1,28.9z"/>
<path class="st19" d="M102.3,36.8c-0.6,0.3-2.7-1.6-3.3-1.5s-2.3,2.4-2.9,2.2s-0.8-3-1.3-3.4s-3.3,0-3.6-0.5
	c-0.3-0.6,1.6-2.7,1.5-3.3c-0.1-0.7-2.4-2.3-2.2-2.9s3-0.8,3.4-1.3s0-3.3,0.5-3.6c0.6-0.3,2.7,1.6,3.3,1.5s2.3-2.4,2.9-2.2
	s0.8,3,1.3,3.4s3.3,0,3.6,0.5s-1.6,2.7-1.5,3.3s2.4,2.3,2.2,2.9c-0.2,0.6-3,0.8-3.4,1.3S102.9,36.4,102.3,36.8z"/>
<path class="st23" d="M903.9,83.6c0,4.9-4,8.9-8.9,8.9c-4.9,0-8.9-4-8.9-8.9l0,0c0-4.9,4-8.9,8.9-8.9
	C900,74.7,903.9,78.7,903.9,83.6z"/>
<path class="st19" d="M962.1,142.8c-0.4,0.4-2.4-0.6-2.9-0.4s-1.2,2.3-1.7,2.3s-1.3-2.1-1.7-2.3c-0.5-0.2-2.5,0.8-2.9,0.4
	c-0.4-0.4,0.6-2.4,0.4-2.9s-2.3-1.2-2.3-1.7s2.1-1.3,2.3-1.7s-0.8-2.5-0.4-2.9c0.4-0.4,2.4,0.6,2.9,0.4s1.2-2.3,1.7-2.3
	s1.3,2.1,1.7,2.3c0.5,0.2,2.5-0.8,2.9-0.4c0.4,0.4-0.6,2.4-0.4,2.9c0.2,0.5,2.3,1.2,2.3,1.7s-2.1,1.3-2.3,1.7
	S962.5,142.4,962.1,142.8z"/>
<path class="st19" d="M874.2,233.2c0.6,1-2.8,5-2.6,6.1c0.3,1.1,4.4,4.1,4.1,5.3c-0.3,1.1-5.4,1.6-6.3,2.6c-0.9,1,0.1,6-0.9,6.7
	c-1,0.7-5-2.8-6.1-2.6c-1.1,0.3-4.1,4.4-5.3,4.1c-1.1-0.3-1.6-5.4-2.6-6.3c-1-0.9-6,0.1-6.7-0.9c-0.7-1,2.8-5,2.6-6.1
	s-4.4-4.1-4.1-5.3c0.3-1.1,5.4-1.6,6.3-2.6c0.9-1-0.1-6,0.9-6.7c1-0.7,5,2.8,6.1,2.6c1.1-0.3,4.1-4.4,5.3-4.1
	c1.1,0.3,1.6,5.4,2.6,6.3C868.5,233.2,873.7,232.1,874.2,233.2z"/>
<path class="st19" d="M980.1,332.2c0,4.5-3.6,8.1-8,8.1s-8-3.6-8-8.1l0,0c0-4.4,3.6-8,8-8C976.5,324.1,980.1,327.8,980.1,332.2z"/>
<path class="st19" d="M820.4,401.8c-0.6,0.3-2.7-1.6-3.3-1.5c-0.6,0.1-2.3,2.4-2.9,2.2c-0.6-0.2-0.8-3-1.3-3.4s-3.3,0-3.6-0.5
	c-0.3-0.6,1.6-2.7,1.5-3.3c-0.1-0.7-2.4-2.3-2.2-2.9c0.2-0.6,3-0.8,3.4-1.3c0.4-0.5,0-3.3,0.5-3.6c0.6-0.3,2.7,1.6,3.3,1.5
	c0.6-0.1,2.3-2.4,2.9-2.2c0.6,0.2,0.8,3,1.3,3.4s3.3,0,3.6,0.5c0.3,0.5-1.6,2.7-1.5,3.3c0.1,0.6,2.4,2.3,2.2,2.9
	c-0.2,0.6-3,0.8-3.4,1.3C820.5,398.7,821,401.4,820.4,401.8z"/>
<path class="st23" d="M1031,428.8c0,2.5-2,4.5-4.4,4.5c-2.5,0-4.5-2-4.5-4.5l0,0c0-2.4,2-4.4,4.5-4.4
	C1029.1,424.3,1031,426.3,1031,428.8z"/>
</svg>
