<?xml version="1.0" encoding="utf-8"?>
<!-- Generator: Adobe Illustrator 26.2.1, SVG Export Plug-In . SVG Version: 6.00 Build 0)  -->
<svg version="1.1" id="Layer_1" xmlns="http://www.w3.org/2000/svg" xmlns:xlink="http://www.w3.org/1999/xlink" x="0px" y="0px"
	 viewBox="0 0 500 500" style="enable-background:new 0 0 500 500;" xml:space="preserve">
<style type="text/css">
	.st0{fill:#572106;}
	.st1{fill:#FFA996;}
	.st2{fill:#87CEEB;}
	.st3{fill:#521C06;}
	.st4{fill:#FFA995;}
	.st5{fill:#FEE3D7;}
	.st6{fill:#381B08;}
	.st7{fill:#FDE3D7;}
	.st8{fill:#E7D4E5;}
	.st9{fill:#FEE8F1;}
	.st10{opacity:5.000000e-02;fill:#9A7969;}
</style>
<path class="st0" d="M53.2,215c0,0-21.8-27.6-26.7-53.1c0,0,13.5-11.2,72.8-9.4C99.3,152.4,107,205.9,53.2,215z"/>
<path class="st0" d="M294.4,137.6c0,0,37.3-10.2,73.3,0c0,0,5.4,43.2-9.5,63.3C358.1,200.9,285.4,200.9,294.4,137.6z"/>
<g>
	<g>
		<path class="st0" d="M187.9,111.4c28.9-3,58.6-0.2,85.9,10c8,2.8,15.6,6.6,23.2,10.4c23.1-3.3,46.8-4.7,69.9-0.7
			c2.3,0.6,5.6,0.7,6.5,3.4c1.4,5.8,0.5,11.8,0.3,17.6c-0.4,11.5-2.1,22.9-4.6,34.1c-1,4.5-2.5,8.9-4.5,13.1
			c7,14.7,12.1,30.4,14.2,46.6c11.7,4,22.5,10.7,31.6,19.1c2.8-5.1,6.1-10.1,10.6-13.9c5.9-5.1,13.8-7.1,19.5-12.5
			c5.9-5.4,9.5-12.7,13.7-19.4c2-3.2,4.6-6.2,8.3-7.5c5.6-1.6,12.5,0.1,15.7,5.3c3.1,5.1,2.2,11.5,0.6,16.9c-3.1,8.9-8.5,17-15.8,23
			c-5,3.9-11,6.3-16.2,10c-7.6,5.3-13.6,13.1-16.5,21.8c4.5,8.4,9.6,16.6,11.7,25.9c6.4-2.3,14.4-3,20,1.7c6.5,5.9,7,16.5,2.4,23.8
			c-4.9,7.5-12.6,12.5-20.1,17.1c-14,8.1-28.9,14.8-44.2,19.9c-22.3,7.8-45.2,13.4-68.5,17.5c-1.6,4.8-4.2,9.5-8.7,12.3
			c-9.8,6.5-22,7.1-33.4,8.2c-10.3,0.2-20.7,0.3-31-0.8c-7.9-1.6-16.5-3.4-22.3-9.4c-3.1-3.1-4.1-7.6-4.5-11.8
			c-25.6,2.2-51.4-0.6-76.5-5.8c-1.6-0.3-3.3-0.7-4.7,0.3c-7,3.7-14.2,7.1-21.5,10.3c-2.9,1.2-6,1.8-9.1,2.3
			c-3.8,0.4-7.7,0.3-11.6,0c-8.4-1.5-18.7-3-23.1-11.2c-5.2-9.8-2.1-21.5,2.3-31c1.3-2.7,2.4-5.5,3.4-8.4
			c-16.2-6-31.6-15.4-42.1-29.2c-8.9-11.1-13.4-25.2-13.5-39.4c-0.3-11,1.9-22.1,7.2-31.8c-0.8-10.9,1.5-21.8,5-32.1
			c-7.1-9.8-12.3-20.8-17.7-31.6c-3.5-8-7.6-15.9-9.9-24.4c-0.6-2.3,1.8-3.8,3.6-4.7c7.2-3.3,15-5.2,22.9-6.4
			c6.3,1.3,12.5-0.6,18.7-1.1c5.7-0.4,11.4-0.7,17-0.8c4.7-0.1,9.5,0.5,14.1-0.6l1-1.2c1.9-2.3,4.5-3.8,6.8-5.5
			C128.5,123.5,158.1,114,187.9,111.4z M190.1,117.4c-32.7,2.9-65.4,13.8-90.8,35c-7.5,0.3-14.9-0.1-22.4,0.5
			c-17,1.3-34.4,2.4-50.4,8.9c6,15.8,13.5,31.1,22,45.7c1.7,3.4,5.4,6.2,5.1,10.2c-2.4,8.3-4.9,16.6-5.2,25.3c1.4,0.9,3.4,2,2.8,4
			c-1.9,3.4-4.2,6.5-5.7,10.1l0.1,0.3c-4.5,10.1-4.9,21.7-3.4,32.6c2.7,18.9,15.9,34.9,31.9,44.5c4.2,2.3,8.2,5.1,12.9,6.4
			c-6.5-4.3-11.7-11.1-12-19.1l-0.3-0.3c0-6.2,1.3-12.4,4.1-18c-3.8-3.5-8-7-10.2-11.8c1.4,0.3,2.5,1.1,3.3,2.2
			c3.2,3.9,7.1,7.2,11.3,10c0.1,2,1.3,3.7,3,4.7c-0.6-0.4-1.9-1.1-2.5-1.5c-3,6.4-4.1,14.2-0.8,20.8c3.9,7.4,13,9.8,16.8,17.3
			c0,0.9-0.1,1.8-0.2,2.8c-0.9,0.5-1.8,1-2.7,1.5c-1.2,7.2-5.8,13.4-7.2,20.6c-2.1,6.9-1.6,16.9,5.8,20.4
			c10.9,4.3,23.8,5.6,34.5,0.2c6.5-3,13.1-6,19.3-9.6c1.4-0.8,3.1-1.5,4.7-0.7c5.9,2.1,12.1,2.5,18.2,3.8c20.1,3.1,40.7,4.8,61,2.4
			c1.3-3.3,3.5-6.1,6-8.5c3.9-2.5,8.1-4.7,12.7-5.7c6.9-1.8,14-1.2,21.1-1c3.5,0,7.1-0.1,10-2.3c-0.5-2.2-1.7-5.3,1-6.5
			c3.1-0.9,4.7,2.7,4.7,5.2c0.7,4.3-3,7.8-6.8,8.6c-9.6,2.2-19.6-0.8-29.1,2c-6.2,1.5-12.8,5.1-14.5,11.7c-0.6,2.9-0.7,6,0.7,8.7
			c2.4,3.9,6.8,6,11,7.2c9,3,18.6,2.9,28,3.1c12.3-0.3,24.9-0.2,36.6-4.6c5.1-2,9.7-6,11-11.5c1.5-6.9,1.5-14.4-1.1-21
			c0-1.4,0-2.9,0-4.3c1.2-0.4,2.4-1.4,3.7-1c2,0.9,2,3.5,3,5.2c0.6,5.5,1.8,11,1.2,16.5c23.6-4.5,47-10.3,69.6-18.5
			c15.4-5.8,30.7-12.4,44.5-21.5c5.2-3.7,10.7-7.6,13.7-13.4c2.8-5.3,0.9-12.6-4.4-15.5c-3.8-1.2-7.6-0.8-11.4,0.2
			c-0.5,1.4-0.5,3-1.5,4.2c-1,1.3-3.6,1.1-4-0.6c-1.7-4.8-2.8-9.8-4.9-14.4c-9.5-22.4-26-42.5-48-53.6c-2.2-1.1-4.4-2.1-6.6-3.1
			c2,23.6-3.6,48.6-18.9,67.1c-9.6,12.3-23,20.9-37.1,27.3c-20.5,8-42.6,12-64.5,11.6c-1-0.8-1.8-1.6-2.5-2.7
			c0.9-1.4,1.6-3.5,3.7-3.3c19.1-0.5,38.3-3.1,56.3-9.8c17.7-6.6,34.1-18,44.3-34.1c12.2-18.9,15.1-42.5,11.6-64.4
			c-2.5-15-6.9-29.9-14.1-43.3c0.8-5.8,4-10.9,5-16.7c3.2-15.3,5-31,4.5-46.6c-10.1-2-20.4-2.5-30.7-2.4c-11.4-0.1-22.8,0.5-34,2.2
			c-2.8,0.3-5.9,2-8.5,0.2c-14.1-7.6-29.2-13.3-44.8-16.8C230.1,116.2,209.9,115.8,190.1,117.4z M462.1,219.2
			c-2.2,2.2-3.6,5-5.2,7.7c-4.6,8.1-10,16.2-18.2,21c-4.5,2.8-9.6,4.8-13.8,8.2c-4.3,3.7-7.3,8.6-9.7,13.7
			c3.9,3.9,7.3,8.2,10.7,12.6c2.6-5,5.5-10,9.4-14.1c5.2-5.5,11.8-9.3,18.3-12.9c8.6-4.5,14.7-12.8,18.4-21.6
			c1.6-3.7,2.3-7.8,1.6-11.7C472.3,217.4,465.5,215.7,462.1,219.2z"/>
	</g>
</g>
<g>
	<path class="st1" d="M310.4,146.6c6.2-2.7,13-2.6,19.6-2.9c9.9,0.4,19.8,1.2,29.5,2.9c1.1,3.4,0.2,6.9,0,10.3
		c-0.9,10.7-3.1,21.2-5.3,31.7c-3.7,0.5-4.9-3.5-7-5.8c-3.7-5.3-9.2-9.1-12.6-14.7c3.2,0.4,6.4,1,9.6,1.4c-0.4-0.8-1-1.4-1.7-1.9
		c-6.9-3.5-14.3-6.1-20.8-10.3c4.1-0.1,8.1,0.1,12.2-0.1c-1.7-1.5-3.5-2.9-5.6-3.5c-5.9-2-11.7-4-17.6-5.7
		C310.6,147.8,310.5,147,310.4,146.6z"/>
</g>
<path class="st0" d="M46.2,150c16.8-2.8,33.8-3.9,50.9-3.7l-1,1.2c-4.6,1.1-9.4,0.5-14.1,0.6c-5.7,0.1-11.4,0.4-17,0.8
	C58.7,149.4,52.5,151.3,46.2,150z"/>
<path class="st2" d="M159.6,251.7c1.9-2,2.2-5.6,5.3-6.4c-1,4.5-4.2,9-8.8,10.2c-0.5-0.2-1.5-0.4-2.1-0.6
	C155.9,253.9,157.9,253,159.6,251.7z"/>
<path class="st3" d="M83.2,304.1c7.8,5.1,17,7.1,25.8,9.4c4.5,1,8.8,2.6,13.3,3.4c-1,0.9-1.9,1.8-2.9,2.7
	c-10.8-4.2-22.9-5-33.2-10.8C84.5,307.8,83.3,306.1,83.2,304.1z"/>
<g>
	<path class="st4" d="M69,161.6c7.1-0.3,14.1-1.6,21.2-0.9c-0.9,2.1-3.3,2.5-5.2,3.3c-7.1,2.5-13.4,6.7-18.9,11.8
		c6-1,11.3-4.2,17.1-5.9c-0.5,1-1,2.2-2.1,2.8c-7.2,4.5-14.2,9.8-19,16.9c3.3-1.6,6.4-3.6,9.9-4.8c-5,6.5-8.5,14-13,20.9
		c-1.6-1.3-3-2.9-4-4.8c-6.1-10.5-12.8-21-15.7-32.9c1.8-1.2,3.6-2.6,5.9-2.9C53,163.9,60.9,162.2,69,161.6z"/>
</g>
<path class="st5" d="M358.1,200.9c7.2,13.4,11.6,28.3,14.1,43.3c3.5,21.9,0.6,45.5-11.6,64.4c-10.2,16.2-26.6,27.6-44.3,34.1
	c-18,6.7-37.2,9.3-56.3,9.8c-2-0.2-2.8,1.9-3.7,3.3c0.7,1,1.5,1.9,2.5,2.7c1.1,0.6,2.2,1.2,3.4,1.7c-2.1-0.3-4.4-0.2-6.4-1.1
	c-1.4-1.6-1.4-4.1-1.1-6.1c1.6-2.5,4.8-3.1,7.5-3.7c14.1-2.5,28.1-5.8,41-12c15.5-6.5,29-17.3,39.6-30.3c11.8-15.5,19-34.5,20-54
	c1.2-11.4,0.3-22.9-2-34.1C359.8,213,356.8,207.1,358.1,200.9z"/>
<path class="st0" d="M462.1,219.2c3.4-3.4,10.2-1.8,11.5,2.9c0.7,3.9,0,8-1.6,11.7c-3.6,8.9-9.8,17.1-18.4,21.6
	c-6.5,3.6-13.1,7.4-18.3,12.9c-4,4.1-6.8,9-9.4,14.1c-3.3-4.4-6.8-8.7-10.7-12.6c2.4-5.1,5.4-10,9.7-13.7c4.1-3.5,9.2-5.4,13.8-8.2
	c8.2-4.8,13.6-12.9,18.2-21C458.5,224.2,460,221.4,462.1,219.2z"/>
<path class="st5" d="M379.5,252.4c2.2,1,4.4,2,6.6,3.1c2.3,4.1,3.5,8.8,3.4,13.6c1.1,18.1-6.8,35.6-17.8,49.6
	c-7,8.1-14.7,16.1-24.7,20.3c-7.4,3.4-14.9,9.1-23.5,7.9c14-6.4,27.5-15.1,37.1-27.3C375.9,301,381.5,276,379.5,252.4z"/>
<path class="st5" d="M455.8,319.5c5.3,2.9,7.2,10.3,4.4,15.5c-3,5.8-8.5,9.7-13.7,13.4c-13.8,9.1-29.1,15.7-44.5,21.5
	c-22.6,8.2-46,13.9-69.6,18.5c0.6-5.6-0.6-11-1.2-16.5c0.3,0.4,0.8,1.3,1.1,1.7c11.5-0.8,22.4-4.8,33.8-6.7c17.7-5,36.5-7.2,53-15.9
	c10.2-4.2,20-9.6,28.5-16.6C452,330.7,453.7,324.8,455.8,319.5z"/>
<path class="st5" d="M89.5,370.2c1.9,4.9,3.8,10.7,8.9,13.2c9,3.3,18.9,1.8,27.7-1.3c8.1-2.8,14.9-8.2,23-11c4-1.6,7,2.5,10.8,2.9
	c9,0.9,17.9,2.5,27,2.8c16.8,1.3,33.9,2.3,50.7-0.1c0.4,0.4,1.1,1,1.5,1.4c-2.5,2.5-4.7,5.2-6,8.5c-20.3,2.4-40.9,0.7-61-2.4
	c-6.1-1.2-12.3-1.7-18.2-3.8c-1.6-0.8-3.3,0-4.7,0.7c-6.2,3.6-12.8,6.6-19.3,9.6c-10.7,5.4-23.7,4.1-34.5-0.2
	C88,387.1,87.4,377.1,89.5,370.2z"/>
<path class="st0" d="M311.9,237.5c0,29.8-24.6,37.4-47.6,55.1c-18.1,14-31.5,25.5-56.9,25.5c-23.2,0-31.1-3.7-48.4-15.6
	c-25.7-17.6-56-33.1-56-65c0-23.7,28.2-32,43.6-48.8c19.2-21,28.8-47.7,60.9-47.7c30.4,0,30.9,20.8,50,40
	C274.6,198.1,311.9,212.3,311.9,237.5z"/>
<path class="st0" d="M125.6,233.6c0,0,9.1,57.8,82.9,52.1s76.9-61.4,76.9-61.4S207.1,189.5,125.6,233.6z"/>
<g>
	<path class="st2" d="M262,223c4.6-1.2,9.6,0.3,13,3.6c-5.1-0.7-10.3-2.5-15.4-0.9c-2.7,2-4.6,4.8-7.4,6.7
		C253.5,227.8,257.4,224.2,262,223z"/>
</g>
<g>
	<path class="st2" d="M259.6,225.6c5.1-1.5,10.3,0.3,15.4,0.9l0.3,0.1c3.1,3.6,4.9,8.6,3.5,13.3c-1.8,8.3-12.3,13.3-19.7,9
		c-6-2.8-8.8-10-7.2-16.3l0.3-0.3C255,230.5,256.9,227.6,259.6,225.6z"/>
</g>
<g>
	<path class="st6" d="M206.7,244.5c0.8-1.4,2.8-3,4.2-1.5c3.2,3.2,6.1,7,10.5,8.6c2.8,1,6.3,1.6,8.8-0.4c3.4-2.1-1.1-6.9,2.6-8.8
		c0.6,0.3,1.8,1,2.4,1.4c1.2,2.9,1.6,6.4-0.4,9.1c-2.8,4.6-8.9,4.5-13.5,3.5c-4.6-1.4-8.6-4.5-11.7-8c-3.7,5.3-9.5,11.4-16.7,9.7
		c-5.9-0.8-9.3-9.1-5-13.4c2.3-1,3.4,1.5,2.7,3.4c-0.9,2.8,1.3,6,4.3,5.7C200.5,253.8,203.8,248.5,206.7,244.5z"/>
</g>
<g>
	<path class="st7" d="M42.3,290.1c-1.5-10.9-1.2-22.5,3.4-32.6c2,8.3,0.5,17,2.7,25.3c4.3,15.4,14.2,28.7,26.4,38.8l0.3,0.3
		c0.4,8,5.5,14.9,12,19.1c-4.7-1.3-8.7-4-12.9-6.4C58.2,325,44.9,309,42.3,290.1z"/>
</g>
<g>
	<path class="st3" d="M122.3,316.9c5.1,1.3,10.3,3.2,14.6,6.2c4.2,4.7,6.2,11,7.1,17.1c1.1,8.8,0.7,18.3-3.6,26.3
		c-1.3,2.6-3.2,5.2-6.4,5c-0.5-1.1-1-2.3-1.5-3.4c7.5-10.5,8-25,2.9-36.6c-2.7-6.6-10.2-8.7-16-11.9
		C120.4,318.7,121.3,317.8,122.3,316.9z"/>
</g>
<g>
	<path class="st8" d="M444.2,357.1c7.5-4.6,15.2-9.6,20.1-17.1c6.8,1.4,14.8,2.5,19.1,8.6c3.6,5.2,0.7,12.5-4.6,15.2
		c-13.8,8.2-29.5,12-44.8,16.2c-23.2,5.7-46.4,11.1-69.7,16.3c-1.6,3.4-3.1,7.3-6.6,9.2c-7.1,4.1-14.1,8.5-22,11
		c-23.7,7.7-48.8,10.4-73.6,9.8c-12.7-0.5-26-1.6-37.3-8.1c-5.3-3.3-11.3-5.8-15.7-10.4c-1.2-1-2.2-2.6-3.9-2.6
		c-10.5-0.3-20.7,1.9-31.1,2.5c-19.1,0.9-38,3.4-57.1,4.7c-4.3,0.1-8.6,0.1-12.9-0.2c-3.5,0-6.4-2.5-9.9-2.7
		c-12-1.1-24.1-3.9-34.4-10.3c-3.2-2.2-5.9-5-9.5-6.6c-4.6-2.1-9-5.5-10.6-10.5c-1.7-4.8-0.6-10.8,3.2-14.3c6.5-4.8,15-4.9,22.7-6.5
		c6.8-2.8,14.5-6.2,21.9-3.4c-4.4,9.5-7.5,21.2-2.3,31c4.5,8.2,14.8,9.7,23.1,11.2c-0.3,0.4-1,1.3-1.3,1.8c5,0.4,10,0.4,15.1,0.1
		c-0.5-0.5-1.6-1.4-2.2-1.9c3.1-0.5,6.2-1.1,9.1-2.3c7.3-3.2,14.4-6.6,21.5-10.3c1.4-1,3.1-0.6,4.7-0.3c25.1,5.2,50.9,8,76.5,5.8
		c0.4,4.2,1.4,8.7,4.5,11.8c5.9,6,14.4,7.8,22.3,9.4c-0.3,0.4-0.9,1.1-1.2,1.4c7.5,1.2,15.2,0.8,22.8,0.9c6.7-0.1,13.4,0,20.1-0.4
		c-3.6-0.5-7.2-0.9-10.7-1.1c11.4-1.1,23.6-1.7,33.4-8.2c4.4-2.8,7-7.5,8.7-12.3c23.2-4.1,46.2-9.7,68.5-17.5
		C415.3,371.9,430.1,365.2,444.2,357.1z"/>
</g>
<g>
	<path class="st9" d="M107,402c0.3-0.4,1-1.3,1.3-1.8c3.9,0.2,7.7,0.3,11.6,0c0.6,0.5,1.6,1.4,2.2,1.9C117,402.3,112,402.4,107,402z
		"/>
</g>
<circle class="st2" cx="148.7" cy="240.3" r="12.9"/>
<path class="st5" d="M324.5,372c2.6,6.6,2.6,14.1,1.1,21c-1.3,5.5-5.8,9.6-11,11.5c-11.6,4.4-24.3,4.4-36.6,4.6
	c-9.4-0.2-19-0.1-28-3.1c-4.2-1.3-8.6-3.3-11-7.2c-1.4-2.7-1.3-5.8-0.7-8.7c6.8,1.6,12.7,5.6,19.5,7.2c7.9,2.1,16.1,1.1,24.2,1.4
	c8.9-0.2,17.8,0.5,26.6-1.2c6.1-1,9.6-6.6,12.6-11.4C324,382,323.4,376.7,324.5,372z"/>
<path class="st0" d="M327,361.1c0,0,18.4,32.3-5.3,44.2c0,0-22.4,11.5-64.3,6.5c0,0,9.8-33.4-3.9-36.2c0,0,19.7,0.6,25.2-3.6
	c0,0,1.8,1.7,2.8-6.8v-5C281.5,360.2,308.1,353.2,327,361.1z"/>
<path class="st10" d="M324.5,372c2.6,6.6,2.6,14.1,1.1,21c-1.3,5.5-5.8,9.6-11,11.5c-11.6,4.4-24.3,4.4-36.6,4.6
	c-6.5-0.1-13.2-0.1-19.6-1.1c-2.8-0.4,1-10.3,1.9-10.1c7.1,1.4,14.5,0.6,21.8,0.9c8.9-0.2,17.8,0.5,26.6-1.2
	c6.1-1,9.6-6.6,12.6-11.4C324,382,323.4,376.7,324.5,372z"/>
<path class="st3" d="M87.1,338.1c0,0,25.3-8.5,21.4-21.9c0,0,10.5,0,19.9,3.6c9.4,3.7,12.4,18.3,12.4,18.3s4.4,23.6-2.7,30.7
	c-7.1,7.1-8.5,18.9-30.8,15.8S88.5,363,88.5,363l5.8-12.4L87.1,338.1z"/>
</svg>
