<?xml version="1.0" encoding="utf-8"?>
<!-- Generator: Adobe Illustrator 26.2.0, SVG Export Plug-In . SVG Version: 6.00 Build 0)  -->
<svg version="1.1" id="Layer_1" xmlns="http://www.w3.org/2000/svg" xmlns:xlink="http://www.w3.org/1999/xlink" x="0px" y="0px"
	 viewBox="0 0 16 16" style="enable-background:new 0 0 16 16;" xml:space="preserve">
<style type="text/css">
	.st0{fill-rule:evenodd;clip-rule:evenodd;fill:#39BFC9;}
	.st1{fill:#39BFC9;}
</style>
<path class="st0" d="M5,0.3C5.1,0.1,5.3,0,5.5,0h5c0.2,0,0.4,0.1,0.5,0.3l3,7c0.1,0.3,0,0.5-0.3,0.7c0,0-0.1,0-0.1,0h0
	c-0.1,0-0.3,0.1-0.4,0.1c-1.5,0.3-3.1,0.4-4.6,0.4v5C8.5,13.8,8.3,14,8,14c-0.3,0-0.5-0.2-0.5-0.5v-5c-1.6,0-3.1-0.2-4.6-0.4
	C2.7,8,2.6,8,2.4,8h0C2.1,7.9,2,7.7,2,7.4c0,0,0-0.1,0-0.1L5,0.3L5,0.3z"/>
<path class="st1" d="M6.5,12.6c0,0.3-0.1,0.5-0.4,0.6c-0.7,0.1-1.3,0.3-1.7,0.5c-0.1,0.1-0.3,0.2-0.4,0.3c0,0,0,0-0.1,0.1l0,0l0,0v0
	l0,0c0,0,0,0,0,0c0,0.1,0.1,0.1,0.1,0.1c0.2,0.1,0.4,0.3,0.8,0.4C5.7,14.8,6.8,15,8,15s2.3-0.2,3-0.4c0.4-0.1,0.6-0.3,0.8-0.4
	c0.1,0,0.1-0.1,0.1-0.1c0,0,0,0,0,0l0,0v0c0,0,0-0.1-0.1-0.1c-0.1-0.1-0.2-0.2-0.4-0.3c-0.4-0.2-0.9-0.4-1.7-0.5
	c-0.3,0-0.5-0.3-0.4-0.6s0.3-0.5,0.6-0.4c0,0,0,0,0,0c0.8,0.1,1.5,0.3,2,0.6c0.5,0.2,1,0.6,1,1.2c0,0.4-0.3,0.8-0.5,1
	c-0.3,0.2-0.7,0.4-1.1,0.6C10.5,15.8,9.3,16,8,16s-2.5-0.2-3.3-0.5c-0.4-0.1-0.8-0.3-1.1-0.6C3.3,14.8,3,14.4,3,14
	c0-0.6,0.5-1,1-1.2c0.5-0.3,1.2-0.5,2-0.6C6.2,12.1,6.4,12.3,6.5,12.6z"/>
</svg>
