<?xml version="1.0" encoding="utf-8"?>
<!-- Generator: Adobe Illustrator 26.2.0, SVG Export Plug-In . SVG Version: 6.00 Build 0)  -->
<svg version="1.1" id="Layer_2" xmlns="http://www.w3.org/2000/svg" xmlns:xlink="http://www.w3.org/1999/xlink" x="0px" y="0px"
	 viewBox="0 0 531.3 491.3" style="enable-background:new 0 0 531.3 491.3;" xml:space="preserve">
<style type="text/css">
	.st0{fill:#3BBFC9;}
</style>
<path class="st0" d="M243.4,89.1c15,51.7,0.3,101.3-32.8,110.9c-33.1,9.6-72.1-24.5-87-76.1c-15-51.7-0.3-101.3,32.8-110.9
	C189.5,3.4,228.5,37.5,243.4,89.1z"/>
<path class="st0" d="M126.3,231.3c23.9,40.8,21.1,86.9-6.2,102.9c-27.4,16-68.9-4-92.9-44.8C3.2,248.6,6,202.5,33.4,186.5
	C60.8,170.4,102.3,190.5,126.3,231.3z"/>
<path class="st0" d="M272.3,252.3c67.2,0,192,146.3,151.6,205.5c-40.4,59.2-110.3,2.8-151.6,2.8c-41.3,0-111.2,56.4-151.6-2.8
	C80.3,398.6,205.1,252.3,272.3,252.3z"/>
<path class="st0" d="M288.8,89.1c-15,51.7-0.3,101.3,32.8,110.9c33.1,9.6,72.1-24.5,87-76.1c15-51.7,0.3-101.3-32.8-110.9
	C342.7,3.4,303.8,37.5,288.8,89.1z"/>
<path class="st0" d="M408.5,195c-29.8,36.7-34.1,82.6-9.5,102.7c24.6,20,68.8,6.5,98.6-30.2c29.9-36.7,34.1-82.6,9.5-102.7
	C482.5,144.8,438.4,158.3,408.5,195z"/>
</svg>
