<?xml version="1.0" encoding="UTF-8"?><svg xmlns="http://www.w3.org/2000/svg" viewBox="0 0 534.33 494.3"><defs><style>.d{fill:#231f20;stroke:#f1f2f2;stroke-miterlimit:10;stroke-width:3px;}</style></defs><g id="a"/><g id="b"><g id="c"><path class="d" d="M242.72,82.17c15.53,53.58,.3,105.09-34.02,115.05-34.32,9.96-74.75-25.42-90.29-78.99-15.53-53.59-.3-105.09,34.01-115.04,34.34-9.96,74.77,25.41,90.3,78.99Z"/><path class="d" d="M121.17,229.65c24.81,42.31,21.92,90.11-6.47,106.75-28.39,16.65-71.53-4.16-96.32-46.49-24.82-42.31-21.92-90.11,6.48-106.76,28.38-16.64,71.5,4.17,96.31,46.49Z"/><path class="d" d="M272.62,251.49c69.72,0,199.14,151.76,157.24,213.21-41.9,61.45-114.41,2.93-157.24,2.93s-115.34,58.52-157.24-2.93c-41.9-61.45,87.52-213.21,157.24-213.21Z"/><path class="d" d="M289.75,82.17c-15.54,53.58-.3,105.09,34.02,115.05,34.32,9.96,74.75-25.42,90.29-78.99,15.53-53.59,.3-105.09-34.01-115.04-34.33-9.96-74.77,25.41-90.3,78.99Z"/><path class="d" d="M413.97,191.99c-30.96,38.04-35.38,85.73-9.85,106.49,25.52,20.78,71.33,6.78,102.27-31.29,30.97-38.04,35.38-85.73,9.84-106.5-25.51-20.77-71.3-6.76-102.26,31.29Z"/></g></g></svg>